<svg width="501" height="501" viewBox="0 0 501 501" fill="none" xmlns="http://www.w3.org/2000/svg">
<path d="M303.85 459.906L250.327 500.049L196.804 459.906C188.588 441.596 187.789 389.341 250.327 326.803C312.864 389.341 312.066 441.596 303.85 459.906Z" fill="#3ECC84"/>
<path d="M303.85 40.1912L250.327 0.0488281L196.804 40.1912C188.588 58.5017 187.789 110.757 250.327 173.294C312.864 110.757 312.066 58.5017 303.85 40.1912Z" fill="#EE585E"/>
<path d="M40.4688 303.571L0.326451 250.048L40.4688 196.526C58.7793 188.309 111.035 187.511 173.572 250.048C111.035 312.586 58.7793 311.788 40.4688 303.571Z" fill="#38B0F9"/>
<path d="M460.184 303.571L500.326 250.048L460.184 196.526C441.874 188.309 389.618 187.511 327.081 250.048C389.618 312.586 441.874 311.788 460.184 303.571Z" fill="#F7C100"/>
<path d="M436.565 139.503L427.103 73.2713L360.872 63.8099C342.115 70.9476 304.6 107.333 304.6 195.774C393.041 195.774 429.427 158.26 436.565 139.503Z" fill="#F47D28"/>
<path d="M139.782 436.286L73.5505 426.824L64.089 360.593C71.2267 341.836 107.613 304.321 196.054 304.321C196.054 392.762 158.539 429.148 139.782 436.286Z" fill="#34CBEA"/>
<path d="M139.782 63.8111L73.5506 73.2726L64.0892 139.504C71.2269 158.261 107.613 195.776 196.054 195.776C196.054 107.335 158.539 70.9489 139.782 63.8111Z" fill="#6D77FA"/>
<path d="M436.565 360.594L427.104 426.826L360.872 436.287C342.115 429.149 304.6 392.763 304.6 304.322C393.042 304.322 429.427 341.837 436.565 360.594Z" fill="#9AE314"/>
</svg>
